<svg xmlns="http://www.w3.org/2000/svg" viewBox="0 0 1122 1122"><defs><style>.cls-1{fill:#fff;}.cls-2{fill:#9587fb;}.cls-3{fill:#616e7d;}</style></defs><title>5913 [Converted]</title><g id="Bg"><rect class="cls-1" width="1122" height="1122"/></g><g id="Object"><path class="cls-2" d="M754.76,660.82a89.53,89.53,0,0,1,39.58,9A270.48,270.48,0,0,0,820.74,553c0-150.12-122.11-272.2-272.17-272.2S276.39,402.83,276.39,553s122.11,272.2,272.18,272.2a270.52,270.52,0,0,0,127.3-31.71,89.34,89.34,0,0,1-7.17-67.11,208.26,208.26,0,0,1-117.21,35.9C435.9,762.23,342.2,668.52,342.2,553s93.7-209.29,209.29-209.29S760.74,437.37,760.74,553A208.24,208.24,0,0,1,728.16,665,89.68,89.68,0,0,1,754.76,660.82Z"/><path class="cls-1" d="M544.09,712.6H568a13.07,13.07,0,0,0,13.09-13.05V677.28c19.16-2.85,35.87-8.86,50-18.15q33.5-22.15,34.3-61,.49-24.29-13.5-41.26Q629.26,529.73,581.12,523v-45.1a71.29,71.29,0,0,1,16.31,10.76,17.17,17.17,0,0,0,11.2,4.05c3.44,0,8.17-2.38,8.17-2.38l.08,0,26.84-16.84q5.5-3.48,5.6-8.87a9.76,9.76,0,0,0-3.51-7.6q-25.11-28.56-64.69-35.45V396.12A13.1,13.1,0,0,0,568,383H544.09A13.09,13.09,0,0,0,531,396.12v24.72a119.91,119.91,0,0,0-33.57,9.42Q449.11,452.27,450,496a63.33,63.33,0,0,0,12.9,38.06q21,28.18,68.15,35.4v56.3q-20.35-7.2-38.48-26.82a12.71,12.71,0,0,0-10.6-5.17c-2.42,0-7.16,2.08-7.16,2.08l-.07,0-24.43,14.33c-4.18,2.42-6.21,5.64-6.15,9.59a10.52,10.52,0,0,0,2.86,7q9.54,13.31,25.59,25.5a127,127,0,0,0,58.44,25v22.23A13.06,13.06,0,0,0,544.09,712.6Zm37-137.07c12.92,4.08,19.46,11.59,19.37,22.69-.08,10.31-4.81,18.3-14.12,24a45,45,0,0,1-5.25,2.74Zm-65.91-79.35q-.08-12.09,14-18.81l1.84-.72v40Q515.33,510.6,515.21,496.18Z"/><path class="cls-3" d="M515.21,496.18q.12,14.44,15.8,20.45v-40l-1.84.72Q515.12,484.07,515.21,496.18Z"/><path class="cls-3" d="M581.12,575.53v49.4a45,45,0,0,0,5.25-2.74c9.31-5.67,14-13.66,14.12-24C600.58,587.12,594,579.61,581.12,575.53Z"/><path class="cls-3" d="M342.2,553c0,115.57,93.7,209.28,209.29,209.28a208.26,208.26,0,0,0,117.21-35.9A90.59,90.59,0,0,1,728.16,665,208.24,208.24,0,0,0,760.74,553c0-115.58-93.68-209.29-209.25-209.29S342.2,437.37,342.2,553ZM581.12,396.12V421.5q39.54,6.88,64.69,35.45a9.76,9.76,0,0,1,3.51,7.6q-.09,5.38-5.6,8.87l-26.84,16.84-.08,0s-4.73,2.4-8.17,2.38a17.17,17.17,0,0,1-11.2-4.05,71.29,71.29,0,0,0-16.31-10.76V523q48.11,6.74,70.85,33.85,14,16.93,13.5,41.26-.76,39-34.3,61c-14.18,9.29-30.89,15.3-50,18.15v22.27A13.07,13.07,0,0,1,568,712.6H544.09A13.06,13.06,0,0,1,531,699.55V677.32a127,127,0,0,1-58.44-25Q456.52,640.12,447,626.8a10.52,10.52,0,0,1-2.86-7c-.06-4,2-7.17,6.15-9.59l24.43-14.33.07,0s4.74-2.08,7.16-2.08a12.71,12.71,0,0,1,10.6,5.17Q510.65,618.63,531,625.8V569.5q-47.1-7.28-68.15-35.4A63.33,63.33,0,0,1,450,496q-.82-43.68,47.48-65.78A119.91,119.91,0,0,1,531,420.84V396.12A13.09,13.09,0,0,1,544.09,383H568A13.1,13.1,0,0,1,581.12,396.12Z"/><path class="cls-2" d="M688.25,751.5a67.16,67.16,0,1,0,66.67-67.63A67.24,67.24,0,0,0,688.25,751.5Zm114.53-14.79v28.64H769.7v33.06H741.07V765.35H708V736.71h33.07V703.64H769.7v33.07Z"/><path class="cls-3" d="M754.76,660.82a89.68,89.68,0,0,0-26.6,4.21,90.53,90.53,0,0,0-63,86.63,90,90,0,1,0,89.56-90.84Zm67.8,89.72a67.16,67.16,0,1,1-67.64-66.67A67.25,67.25,0,0,1,822.56,750.54Z"/><polygon class="cls-1" points="769.7 798.41 769.7 765.35 802.78 765.35 802.78 736.71 769.7 736.71 769.7 703.64 741.07 703.64 741.07 736.71 708 736.71 708 765.35 741.07 765.35 741.07 798.41 769.7 798.41"/></g></svg>