<svg xmlns="http://www.w3.org/2000/svg" viewBox="0 0 569.21 560.49"><defs><style>.cls-1{fill:#9587fb;}.cls-2{fill:#fff;}.cls-3{fill:#616e7d;}</style></defs><title>Asset 2mdpi</title><g id="Layer_2" data-name="Layer 2"><g id="Object"><path class="cls-1" d="M478.37,380.06A89.74,89.74,0,0,1,518,389a270.49,270.49,0,0,0,26.4-116.84C544.35,122.08,422.24,0,272.17,0S0,122.08,0,272.19s122.11,272.2,272.17,272.2a270.4,270.4,0,0,0,127.3-31.71,89.36,89.36,0,0,1-7.16-67.1,208.29,208.29,0,0,1-117.22,35.9c-115.58,0-209.28-93.71-209.28-209.29S159.51,62.91,275.09,62.91s209.26,93.71,209.26,209.28a208.2,208.2,0,0,1-32.59,112.08A90.4,90.4,0,0,1,478.37,380.06Z"/><path class="cls-2" d="M267.69,431.84h23.95a13.07,13.07,0,0,0,13.08-13V396.53c19.16-2.86,35.88-8.87,50-18.15q33.5-22.15,34.3-61.05.49-24.3-13.49-41.26Q352.87,249,304.72,242.22v-45.1A71.07,71.07,0,0,1,321,207.87a17.17,17.17,0,0,0,11.19,4.06c3.44,0,8.17-2.39,8.17-2.39l.09,0,26.83-16.84c3.67-2.31,5.55-5.28,5.61-8.87a9.78,9.78,0,0,0-3.51-7.59q-25.11-28.57-64.7-35.45V115.36a13.08,13.08,0,0,0-13.08-13.08H267.69a13.08,13.08,0,0,0-13.08,13.08v24.72a119.94,119.94,0,0,0-33.56,9.43q-48.35,22-47.49,65.78a63.4,63.4,0,0,0,12.9,38.06q21,28.18,68.15,35.39v56.31q-20.36-7.2-38.48-26.83a12.68,12.68,0,0,0-10.59-5.17c-2.42,0-7.17,2.09-7.17,2.09l-.07,0L173.88,329.5c-4.18,2.42-6.21,5.64-6.15,9.58a10.42,10.42,0,0,0,2.85,7q9.55,13.31,25.59,25.5a126.89,126.89,0,0,0,58.44,25v22.23A13.07,13.07,0,0,0,267.69,431.84Zm37-137.07c12.93,4.08,19.46,11.6,19.38,22.7-.08,10.31-4.82,18.29-14.13,24a44.26,44.26,0,0,1-5.25,2.74Zm-65.91-79.34c0-8.06,4.59-14.34,14-18.82l1.84-.72v40Q238.94,229.84,238.81,215.43Z"/><path class="cls-3" d="M238.81,215.43q.13,14.43,15.8,20.44v-40l-1.84.72C243.4,201.09,238.77,207.37,238.81,215.43Z"/><path class="cls-3" d="M304.72,294.77v49.41a44.26,44.26,0,0,0,5.25-2.74c9.31-5.68,14-13.66,14.13-24C324.18,306.37,317.65,298.85,304.72,294.77Z"/><path class="cls-3" d="M65.81,272.19c0,115.58,93.7,209.29,209.28,209.29a208.29,208.29,0,0,0,117.22-35.9,90.61,90.61,0,0,1,59.45-61.31,208.2,208.2,0,0,0,32.59-112.08c0-115.57-93.69-209.28-209.26-209.28S65.81,156.62,65.81,272.19ZM304.72,115.36v25.39q39.54,6.88,64.7,35.45a9.78,9.78,0,0,1,3.51,7.59c-.06,3.59-1.94,6.56-5.61,8.87L340.49,209.5l-.09,0s-4.73,2.4-8.17,2.39A17.17,17.17,0,0,1,321,207.87a71.07,71.07,0,0,0-16.32-10.75v45.1q48.12,6.72,70.86,33.85,14,16.94,13.49,41.26-.75,39-34.3,61.05c-14.17,9.28-30.89,15.29-50,18.15v22.26a13.07,13.07,0,0,1-13.08,13H267.69a13.07,13.07,0,0,1-13.08-13V396.56a126.89,126.89,0,0,1-58.44-25q-16-12.18-25.59-25.5a10.42,10.42,0,0,1-2.85-7c-.06-3.94,2-7.16,6.15-9.58l24.42-14.33.07,0s4.75-2.09,7.17-2.09a12.68,12.68,0,0,1,10.59,5.17q18.12,19.66,38.48,26.83V288.74q-47.1-7.26-68.15-35.39a63.4,63.4,0,0,1-12.9-38.06q-.81-43.69,47.49-65.78a119.94,119.94,0,0,1,33.56-9.43V115.36a13.08,13.08,0,0,1,13.08-13.08h23.95A13.08,13.08,0,0,1,304.72,115.36Z"/><path class="cls-1" d="M411.85,470.75a67.16,67.16,0,1,0,66.67-67.63A67.25,67.25,0,0,0,411.85,470.75ZM526.38,456v28.63H493.3v33.07H464.68V484.59H431.61V456h33.07V422.89H493.3V456Z"/><path class="cls-3" d="M478.37,380.06A90.56,90.56,0,1,0,518,389,90.4,90.4,0,0,0,478.37,380.06Zm67.79,89.72a67.16,67.16,0,1,1-67.64-66.66A67.24,67.24,0,0,1,546.16,469.78Z"/><polygon class="cls-2" points="493.3 517.66 493.3 484.59 526.38 484.59 526.38 455.96 493.3 455.96 493.3 422.89 464.68 422.89 464.68 455.96 431.61 455.96 431.61 484.59 464.68 484.59 464.68 517.66 493.3 517.66"/></g></g></svg>